<svg xmlns="http://www.w3.org/2000/svg" xmlns:xlink="http://www.w3.org/1999/xlink" width="500" zoomAndPan="magnify" viewBox="0 0 375 374.999991" height="500" preserveAspectRatio="xMidYMid meet" version="1.2"><defs><clipPath id="158f7198fa"><path d="M 27.78125 27.78125 L 347.21875 27.78125 L 347.21875 347.21875 L 27.78125 347.21875 Z M 27.78125 27.78125 "/></clipPath><clipPath id="7920a4b69c"><path d="M 187.5 27.78125 C 99.289062 27.78125 27.78125 99.289062 27.78125 187.5 C 27.78125 275.710938 99.289062 347.21875 187.5 347.21875 C 275.710938 347.21875 347.21875 275.710938 347.21875 187.5 C 347.21875 99.289062 275.710938 27.78125 187.5 27.78125 Z M 187.5 27.78125 "/></clipPath><clipPath id="0eae1edf7b"><path d="M 74.308594 134 L 161 134 L 161 280.21875 L 74.308594 280.21875 Z M 74.308594 134 "/></clipPath><clipPath id="f6230e7a8d"><path d="M 214 134 L 300.808594 134 L 300.808594 280.21875 L 214 280.21875 Z M 214 134 "/></clipPath><clipPath id="4be1758c0b"><path d="M 125 94.96875 L 250 94.96875 L 250 276 L 125 276 Z M 125 94.96875 "/></clipPath></defs><g id="26b1375894"><g clip-rule="nonzero" clip-path="url(#158f7198fa)"><g clip-rule="nonzero" clip-path="url(#7920a4b69c)"><path style=" stroke:none;fill-rule:nonzero;fill:#e79e68;fill-opacity:1;" d="M 27.78125 27.78125 L 347.21875 27.78125 L 347.21875 347.21875 L 27.78125 347.21875 Z M 27.78125 27.78125 "/></g></g><g clip-rule="nonzero" clip-path="url(#0eae1edf7b)"><path style=" stroke:none;fill-rule:nonzero;fill:#036584;fill-opacity:1;" d="M 87.121094 237.40625 L 87.089844 135.746094 C 83.171875 135.042969 78.953125 134.625 74.320312 134.625 L 74.320312 248.460938 C 74.320312 248.460938 125.617188 254.484375 160.136719 280.023438 C 144.1875 261.644531 120.359375 246.390625 87.121094 237.40625 "/></g><path style=" stroke:none;fill-rule:nonzero;fill:#062f54;fill-opacity:1;" d="M 113.011719 215.167969 L 112.933594 120.484375 C 108.941406 118.539062 104.609375 116.832031 99.859375 115.453125 L 99.859375 229.292969 C 99.859375 229.292969 141.390625 240.339844 169.890625 272.851562 C 156.804688 250.53125 138.277344 227.960938 113.011719 215.167969 "/><g clip-rule="nonzero" clip-path="url(#f6230e7a8d)"><path style=" stroke:none;fill-rule:nonzero;fill:#036584;fill-opacity:1;" d="M 287.867188 237.40625 L 287.902344 135.746094 C 291.820312 135.042969 296.039062 134.625 300.667969 134.625 L 300.667969 248.460938 C 300.667969 248.460938 249.375 254.484375 214.855469 280.023438 C 230.804688 261.644531 254.628906 246.390625 287.867188 237.40625 "/></g><path style=" stroke:none;fill-rule:nonzero;fill:#062f54;fill-opacity:1;" d="M 261.976562 215.167969 L 262.058594 120.484375 C 266.050781 118.539062 270.382812 116.832031 275.132812 115.453125 L 275.132812 229.292969 C 275.132812 229.292969 233.601562 240.339844 205.101562 272.851562 C 218.1875 250.53125 236.714844 227.960938 261.976562 215.167969 "/><g clip-rule="nonzero" clip-path="url(#4be1758c0b)"><path style=" stroke:none;fill-rule:nonzero;fill:#fbc08b;fill-opacity:1;" d="M 187.496094 159.175781 C 187.496094 159.175781 170.546875 123.59375 125.703125 94.972656 L 125.703125 208.808594 C 125.703125 208.808594 159.253906 230.949219 185.445312 275.101562 L 185.445312 215.253906 C 181.910156 214.464844 179.285156 210.621094 179.285156 207.320312 C 179.285156 203.40625 182.960938 199.136719 187.496094 199.136719 C 192.027344 199.136719 195.703125 203.40625 195.703125 207.320312 C 195.703125 210.621094 193.082031 214.464844 189.546875 215.253906 L 189.546875 275.101562 C 215.738281 230.949219 249.289062 208.808594 249.289062 208.808594 L 249.289062 94.972656 C 204.445312 123.59375 187.496094 159.175781 187.496094 159.175781 "/></g></g></svg>